<?xml version="1.0" encoding="UTF-8"?>
<svg id="Capa_2" data-name="Capa 2" xmlns="http://www.w3.org/2000/svg" viewBox="0 0 1372.14 498.29">
  <defs>
    <style>
      .cls-1 {
        font-family: Montserrat-Light, Montserrat;
        font-size: 92.74px;
        font-weight: 300;
      }

      .cls-1, .cls-2 {
        fill: #fff;
      }

      .cls-3 {
        letter-spacing: -.02em;
      }

      .cls-4 {
        fill: #6f90ff;
      }
    </style>
  </defs>
  <g id="Moocs">
    <text class="cls-1" transform="translate(509.37 455.91)"><tspan x="0" y="0">MOO</tspan><tspan class="cls-3" x="244.08" y="0">C</tspan><tspan x="307.7" y="0">s</tspan></text>
  </g>
  <g id="S">
    <path id="S-2" data-name="S" class="cls-2" d="M1174.66,236.16c5.5,28.76,25.64,40.85,56.86,40.85,29.25,0,42.73-10.24,42.73-29.39,0-21.69-14.63-29.9-66.75-42.36-97.34-23.58-116.74-59.11-116.74-103.52,0-55.37,40.68-101.74,132.52-101.74s134.46,48.44,139.08,100.48h-93.4c-2.54-17.7-11.61-35.72-45.92-35.72-22.14,0-35.74,8.35-35.74,26.21s12.09,24.82,62.97,37.31c101.68,25.38,121.86,62.01,121.86,108.93,0,61.97-47.79,105.02-144.66,105.02-91.24,0-139.59-42.6-146.89-106.06h94.07Z"/>
  </g>
  <g id="U">
    <path id="U-2" data-name="U" class="cls-2" d="M843.85.87v205.97c0,47.99,23.64,64.43,53.4,64.43,32.23,0,50.94-19.64,50.94-64.43V.87h98.63v196.1c0,111.34-65.86,145.16-151.22,145.16s-150.03-35.83-150.03-144.7V.87h98.28Z"/>
  </g>
  <g id="O">
    <g id="O-2" data-name="O">
      <path class="cls-2" d="M372.47,171.28c0-27.74,3.83-52.28,11.5-73.62,7.66-21.34,18.14-39.21,31.44-53.62,13.29-14.4,28.93-25.34,46.93-32.81C480.33,3.76,499.8.02,520.77.02s40.43,3.73,58.43,11.2c17.99,7.47,33.71,18.41,47.16,32.81,13.45,14.41,24.01,32.28,31.68,53.62,7.66,21.34,11.5,45.88,11.5,73.62s-3.75,52.38-11.26,73.89c-7.51,21.52-17.91,39.48-31.21,53.88-13.3,14.4-29.02,25.34-47.16,32.81-18.15,7.47-37.86,11.2-59.13,11.2s-40.99-3.83-59.13-11.47c-18.15-7.64-33.79-18.75-46.93-33.34-13.14-14.58-23.46-32.54-30.97-53.88-7.51-21.34-11.26-45.7-11.26-73.09ZM456.94,171.28c0,32.37,5.79,56.55,17.36,72.56,11.57,16,27.06,24.01,46.46,24.01s35.35-8,46.93-24.01c11.57-16.01,17.36-40.19,17.36-72.56s-5.71-56.02-17.13-72.02c-11.42-16.01-26.98-24.01-46.69-24.01s-34.96,7.92-46.69,23.74c-11.73,15.83-17.6,39.93-17.6,72.29Z"/>
    </g>
  </g>
  <g id="Tentaculo_3" data-name="Tentaculo 3">
    <path class="cls-4" d="M481.04,337.75c-21.94-5.57-36.78-26.45-34.24-48.94.06-.55.13-1.1.21-1.64,1.87-13.14,9.31-25.88,20.44-30.03,6.49-2.42,13.13-1.77,19.82.09,0,0,19.8,16.77,49.65,8.59,0,0,.29-3.32-.21-5.9-6.98-36.14-33.76-62.08-64.29-69.49-54.96-13.35-117.85,35.18-116.73,102.14.31,18.45,5.11,36.97,14.23,52.29,20.62,34.66,60.12,48.84,95.18,38.02,19.73-6.09,35.35-21.25,47.44-40.01-12.6-1.08-23.04-2.98-31.49-5.13Z"/>
  </g>
  <g id="Tentaculo_2" data-name="Tentaculo 2">
    <path class="cls-4" d="M445.73,153.2c6.36,3.76,11.52,5.62,11.52,5.62,0,0,14.69-6.59,20.89-24.57,11.16-32.41,7.4-71.54-38.3-100.07-25.17-15.72-58.8-13.77-79.71,8.61-20.91,22.38-26.12,61.53-11.76,89.81,3.59,7.08,17.07,21.04,24.51,23.38,0,0,4.18-7.25,15.31-10.47,18.38-5.32,40.68-2.29,57.55,7.7Z"/>
  </g>
  <g id="Tentaculo_1" data-name="Tentaculo 1">
    <path class="cls-4" d="M555.68,217.74c-7.88-10.27-11.29-23.92-7.8-36.64,12.64-46.08,80.95-31.65,114.68-43.31,16.16-5.59,28.94-17.5,28.22-36.03-.71-18.1-13.6-38.06-31.81-41.84-7.54-1.57-17.43,1.81-19.01,10.47-.51,2.8.33,5.78,1.99,8.06,1.28,1.76-.44,4.11-2.49,3.48-3.04-.94-5.79-2.68-7.72-5.22-8.25-10.89-2.72-26.3,9.27-33.43,21.5-12.81,50.73-4.2,66.94,16.95,5.94,7.75,10.54,16.64,13.38,26.05,7.24,24.06,4.38,51.45-8.66,72.94-18.35,30.25-53.3,35.2-84.87,38.59-14.07,1.51-28.14,4.84-41.64,9.11-.02,0-.04.01-.06.02-2.43.78-4.2,2.89-4.62,5.41-.74,4.44-1.98,10.02-5.76,17.74-8-1.62-14.73-5.41-20.04-12.34Z"/>
  </g>
  <g id="_1.1" data-name="1.1">
    <path id="_1.1-2" data-name="1.1" class="cls-4" d="M575.8,230.08s-11.74-1.24-20.04-12.34c0,0-13.08-16.22-7.8-36.64,0,0,3.92-23.83,36.26-31.83,0,0,5.62,47.92-8.42,80.81Z"/>
  </g>
  <g id="_1.2" data-name="1.2">
    <path id="_1.2-2" data-name="1.2" class="cls-4" d="M592.57,147.92c-20.09,1.36-39.49,14.77-44.44,32.86-.06.23-.1.42-.16.59-.72,2.26-5.32,18.84,7.72,36.16l.26.38c.81,1.28,6.58,9.75,19.94,12.18,0,0,5.27-10.14,5.73-16.88.06-.81.19-1.62.52-2.37.11-.24.23-.5.38-.77,1.01-1.8,2.98-2.5,4.89-3.29,7.88-3.24,23.07-6.81,31.74-8.15,7.85-1.21,16.68-6.78,22.61-10.61,6.92-4.48,23.74-17.24,21.72-20.89-.54-.98-2.25-.98-3.08-.99-10.9-.11-19.15-6.08-39.74-11.91-16.97-4.8-18.64-6.94-28.09-6.3Z"/>
  </g>
  <g id="_1.3" data-name="1.3">
    <path id="_1.3-2" data-name="1.3" class="cls-4" d="M575.8,230.08s-14.44-2.95-20.45-12.9c0,0-13.09-15.75-7.38-36.08,0,0,3.7-26.01,43.98-33.6,0,0,46.35-4.23,64.59-8.03,4.84-1.01,9.73-1.64,14.66-1.98,9.31-.63,23.73-2.62,30.14-8.82,9.87-9.53,6.82,8.85,6.82,8.85,0,0,0,6.56-5.65,19.83-6.98,16.42-20.15,31.15-37.6,34.91-20.06,4.32-53.79,4.83-78.72,14.66l-10.38,23.15Z"/>
  </g>
  <g id="_1.4" data-name="1.4">
    <path id="_1.4-2" data-name="1.4" class="cls-4" d="M575.91,230.08s-9.59-.22-20.04-12.34c0,0-12.89-16.05-7.8-36.64,0,0,3.64-23.6,36.15-31.8,0,0,72.34-8.45,78.53-11.51,0,0,26.78-6.5,28.21-31.84.21-3.77.44-7.54.8-11.3.79-8.28.55-19.84-.74-24.52s-.78-9.34,5.37-2.3c4.46,5.11,11.83,18.68,16.31,27.38,3.03,5.88,5.23,12.15,6.44,18.65,1.9,10.23,3.21,25.51-2.23,37.77-9.03,20.37-27.01,34.45-47.88,39.02,0,0-32.81,4.87-82.69,16.26l-10.44,23.16Z"/>
  </g>
  <g id="N">
    <g id="N-2" data-name="N">
      <path class="cls-2" d="M0,342.35V1.62h119.48c35.85,76.74,87.75,180.42,102.08,222.39h1.68c-3.78-35.38-4.65-95.57-4.65-149.91V1.62h91v340.74h-113.84c-28.9-61.68-90.55-189.54-106.56-234.51h-1.34c3.17,32.05,3.46,98,3.46,157.99v76.52H0Z"/>
    </g>
  </g>
</svg>